<svg version="1.2" xmlns="http://www.w3.org/2000/svg" viewBox="0 0 210 630" width="210" height="630">
	<title>bt-bonus-svg</title>
	<style>
		.s0 { fill: #ffffff } 
	</style>
	<g id="Pasta 2">
		<g id="Pasta 1 copy">
			<path id="Forma 1" fill-rule="evenodd" class="s0" d="m35 195.1c-2.7 0-5.2-0.5-7.5-1.4l5-12.4q1.2 0.5 2.5 0.5c3.7 0 6.8-3.1 6.8-6.8q0-1.3-0.5-2.5l12.4-5c0.9 2.3 1.4 4.8 1.4 7.5 0 11.1-9 20.1-20.1 20.1zm-20.1-20.1c0-11.1 9-20.1 20.1-20.1 2.7 0 5.2 0.5 7.5 1.4l-5 12.4q-1.2-0.5-2.5-0.5c-3.7 0-6.8 3.1-6.8 6.8q0 1.3 0.5 2.5l-12.4 5c-0.9-2.3-1.4-4.8-1.4-7.5zm33.9-14.6q0.4 0.4 0.8 0.8zm-27.6 29.2q-0.5-0.4-0.8-0.8z"/>
			<path id="Forma 1 copy" fill-rule="evenodd" class="s0" d="m35 195.1c-11.1 0-20.1-9-20.1-20.1 0-11.1 9-20.1 20.1-20.1 11.1 0 20.1 9 20.1 20.1 0 11.1-9 20.1-20.1 20.1zm17.4-20.1c0-9.6-7.8-17.4-17.4-17.4-9.6 0-17.4 7.8-17.4 17.4 0 9.6 7.8 17.4 17.4 17.4 9.6 0 17.4-7.8 17.4-17.4z"/>
			<path id="Forma 1 copy 2" class="s0" d="m35 177.3c-1.2 0-2.3-1.1-2.3-2.3 0-1.2 1.1-2.3 2.3-2.3 1.2 0 2.3 1.1 2.3 2.3 0 1.2-1.1 2.3-2.3 2.3z"/>
		</g>
	</g>
	<path fill-rule="evenodd" class="s0" d="m49.5 31.6v17.2c0 1.3-1 2.3-2.3 2.3h-24.4c-1.3 0-2.3-1-2.3-2.3v-17.3c0-1.3 1-2.3 2.3-2.3h2.6v-5.4c0-4.3 4.1-9.1 9.5-9.1 5.4 0.1 9.5 4.8 9.5 9.1v5.4h2.8c1.3 0 2.3 1.1 2.3 2.4zm-20.6-2.3h12v-5.4c0-2.3-2.3-5.6-6-5.6-3.7 0-6 3.3-6 5.6z"/>
	<path id="Camada 4" class="s0" d="m35.9 96.5l3.3 0.5c-4.9 9.5-8.3 29.9-8.3 29.9-4.4 0-11-3.6-11-3.6 0 0 2.7-15 16-26.8z"/>
	<path id="Forma 2" fill-rule="evenodd" class="s0" d="m28.9 92.2c4.8 0.1 7.4 2.4 8.5 3.8-0.7 0-1.1 0.1-1.1 0.1 0 0 0.1 0.5 0.4 1.4-3.5 1.1-13.1 3.9-21.5 2.6 0 0 8.2-8.1 13.7-7.9zm9.2 4.8c0 0-0.5 0.2-1.4 0.5 1 3 4 10.6 10.6 16.6 0 0 2.7-10.1-1-14.2-3.3-3.6-7.1-4-8.9-3.9 0.5 0.6 0.7 1 0.7 1z"/>
	<path id="Forma 3" class="s0" d="m36.1 96.7c0 0 3.8-5.8 10.4-6.3 6.9-0.4 13.7 5.1 12.1 5.4-9.4 2.3-17.5 2.1-17.5 2.1z"/>
	<path id="Forma 3 copy" class="s0" d="m39.7 97.9c0 0 0.4-7-4.7-11.2-5.4-4.5-13.9-4.2-13-2.8 4.9 7.2 13 12 13 12z"/>
</svg>